<mxfile host="app.diagrams.net" agent="Mozilla/5.0 (Windows NT 10.0; Win64; x64) AppleWebKit/537.36 (KHTML, like Gecko) Chrome/132.0.0.0 Safari/537.36 Edg/132.0.0.0" version="26.0.8">
  <diagram id="C5RBs43oDa-KdzZeNtuy" name="Page-1">
    <mxGraphModel dx="664" dy="893" grid="1" gridSize="10" guides="1" tooltips="1" connect="1" arrows="1" fold="1" page="1" pageScale="1" pageWidth="827" pageHeight="1169" math="0" shadow="0">
      <root>
        <mxCell id="WIyWlLk6GJQsqaUBKTNV-0" />
        <mxCell id="WIyWlLk6GJQsqaUBKTNV-1" parent="WIyWlLk6GJQsqaUBKTNV-0" />
        <mxCell id="b0bZzZWMz8QFtLMg9tmF-6" value="" style="edgeStyle=orthogonalEdgeStyle;rounded=0;orthogonalLoop=1;jettySize=auto;html=1;" parent="WIyWlLk6GJQsqaUBKTNV-1" source="b0bZzZWMz8QFtLMg9tmF-0" target="b0bZzZWMz8QFtLMg9tmF-1" edge="1">
          <mxGeometry relative="1" as="geometry" />
        </mxCell>
        <mxCell id="b0bZzZWMz8QFtLMg9tmF-0" value="&lt;div&gt;DrawHilbertCurve&lt;/div&gt;Начало" style="strokeWidth=2;html=1;shape=mxgraph.flowchart.terminator;whiteSpace=wrap;" parent="WIyWlLk6GJQsqaUBKTNV-1" vertex="1">
          <mxGeometry x="320" y="40" width="160" height="40" as="geometry" />
        </mxCell>
        <mxCell id="mKjbJd1JOfiF9M0GR_Uv-2" value="" style="edgeStyle=orthogonalEdgeStyle;rounded=0;orthogonalLoop=1;jettySize=auto;html=1;" edge="1" parent="WIyWlLk6GJQsqaUBKTNV-1" source="b0bZzZWMz8QFtLMg9tmF-1" target="mKjbJd1JOfiF9M0GR_Uv-0">
          <mxGeometry relative="1" as="geometry" />
        </mxCell>
        <mxCell id="b0bZzZWMz8QFtLMg9tmF-1" value="Depth, Points, Index" style="shape=parallelogram;perimeter=parallelogramPerimeter;whiteSpace=wrap;html=1;fixedSize=1;" parent="WIyWlLk6GJQsqaUBKTNV-1" vertex="1">
          <mxGeometry x="320" y="120" width="160" height="40" as="geometry" />
        </mxCell>
        <mxCell id="b0bZzZWMz8QFtLMg9tmF-2" value="" style="strokeWidth=2;html=1;shape=mxgraph.flowchart.annotation_2;align=left;labelPosition=right;pointerEvents=1;" parent="WIyWlLk6GJQsqaUBKTNV-1" vertex="1">
          <mxGeometry x="520" y="100" width="50" height="80" as="geometry" />
        </mxCell>
        <mxCell id="b0bZzZWMz8QFtLMg9tmF-3" value="" style="endArrow=none;html=1;rounded=0;exitX=1;exitY=0.5;exitDx=0;exitDy=0;entryX=0;entryY=0.5;entryDx=0;entryDy=0;entryPerimeter=0;" parent="WIyWlLk6GJQsqaUBKTNV-1" source="b0bZzZWMz8QFtLMg9tmF-1" target="b0bZzZWMz8QFtLMg9tmF-2" edge="1">
          <mxGeometry width="50" height="50" relative="1" as="geometry">
            <mxPoint x="440" y="130" as="sourcePoint" />
            <mxPoint x="490" y="80" as="targetPoint" />
          </mxGeometry>
        </mxCell>
        <mxCell id="b0bZzZWMz8QFtLMg9tmF-5" value="Depth - по значению&lt;div&gt;Points - по ссылке&lt;/div&gt;&lt;div&gt;Index - по ссылке&lt;/div&gt;" style="text;html=1;align=center;verticalAlign=middle;whiteSpace=wrap;rounded=0;" parent="WIyWlLk6GJQsqaUBKTNV-1" vertex="1">
          <mxGeometry x="550" y="125" width="140" height="30" as="geometry" />
        </mxCell>
        <mxCell id="b0bZzZWMz8QFtLMg9tmF-7" value="&lt;div&gt;DrawHilbertCurve&lt;/div&gt;Конец" style="strokeWidth=2;html=1;shape=mxgraph.flowchart.terminator;whiteSpace=wrap;" parent="WIyWlLk6GJQsqaUBKTNV-1" vertex="1">
          <mxGeometry x="320" y="360" width="160" height="40" as="geometry" />
        </mxCell>
        <mxCell id="mKjbJd1JOfiF9M0GR_Uv-3" value="" style="edgeStyle=orthogonalEdgeStyle;rounded=0;orthogonalLoop=1;jettySize=auto;html=1;" edge="1" parent="WIyWlLk6GJQsqaUBKTNV-1" source="mKjbJd1JOfiF9M0GR_Uv-0" target="mKjbJd1JOfiF9M0GR_Uv-1">
          <mxGeometry relative="1" as="geometry" />
        </mxCell>
        <mxCell id="mKjbJd1JOfiF9M0GR_Uv-0" value="Index := 0" style="rounded=0;whiteSpace=wrap;html=1;" vertex="1" parent="WIyWlLk6GJQsqaUBKTNV-1">
          <mxGeometry x="320" y="200" width="160" height="40" as="geometry" />
        </mxCell>
        <mxCell id="mKjbJd1JOfiF9M0GR_Uv-4" value="" style="edgeStyle=orthogonalEdgeStyle;rounded=0;orthogonalLoop=1;jettySize=auto;html=1;" edge="1" parent="WIyWlLk6GJQsqaUBKTNV-1" source="mKjbJd1JOfiF9M0GR_Uv-1" target="b0bZzZWMz8QFtLMg9tmF-7">
          <mxGeometry relative="1" as="geometry" />
        </mxCell>
        <mxCell id="mKjbJd1JOfiF9M0GR_Uv-1" value="HilbertA(Depth, Points, Index, 0, 0, 512, 0, 0, 512)" style="shape=process;whiteSpace=wrap;html=1;backgroundOutline=1;" vertex="1" parent="WIyWlLk6GJQsqaUBKTNV-1">
          <mxGeometry x="320" y="280" width="160" height="40" as="geometry" />
        </mxCell>
      </root>
    </mxGraphModel>
  </diagram>
</mxfile>
